HIERARCHY
ROOT Hips
{
	OFFSET -3.958830 18.904000 13.208200
	CHANNELS 6 Xposition Yposition Zposition Zrotation Yrotation Xrotation 
	JOINT LHipJoint
	{
		OFFSET 0.000000 0.000000 0.000000
		CHANNELS 3 Zrotation Yrotation Xrotation
		JOINT LeftUpLeg
		{
			OFFSET 1.800000 -1.400000 0.085000
			CHANNELS 3 Zrotation Yrotation Xrotation
			JOINT LeftLeg
			{
				OFFSET 2.215000 -6.000000 0.000000
				CHANNELS 3 Zrotation Yrotation Xrotation
				JOINT LeftFoot
				{
					OFFSET 2.500000 -6.900000 0.000000
					CHANNELS 3 Zrotation Yrotation Xrotation
					JOINT LeftToeBase
					{
						OFFSET 0.200000 -0.500000 1.950000
						CHANNELS 3 Zrotation Yrotation Xrotation
						End Site
						{
							OFFSET 0.000000 0.000000 0.000000
						}
					}
				}
			}
		}
	}
	JOINT RHipJoint
	{
		OFFSET 0.000000 0.000000 0.000000
		CHANNELS 3 Zrotation Yrotation Xrotation
		JOINT RightUpLeg
		{
			OFFSET -1.800000 -1.400000 0.085000
			CHANNELS 3 Zrotation Yrotation Xrotation
			JOINT RightLeg
			{
				OFFSET -2.215000 -6.000000 0.000000
				CHANNELS 3 Zrotation Yrotation Xrotation
				JOINT RightFoot
				{
					OFFSET -2.500000 -6.900000 0.000000
					CHANNELS 3 Zrotation Yrotation Xrotation
					JOINT RightToeBase
					{
						OFFSET -0.200000 -0.500000 1.950000
						CHANNELS 3 Zrotation Yrotation Xrotation
						End Site
						{
							OFFSET 0.000000 0.000000 0.000000
						}
					}
				}
			}
		}
	}
	JOINT LowerBack
	{
		OFFSET 0.000000 0.000000 0.000000
		CHANNELS 3 Zrotation Yrotation Xrotation
		JOINT Spine
		{
			OFFSET -0.087000 1.940000 -0.288900
			CHANNELS 3 Zrotation Yrotation Xrotation
			JOINT Spine1
			{
				OFFSET 0.000000 1.950000 0.060000
				CHANNELS 3 Zrotation Yrotation Xrotation
				JOINT Neck
				{
					OFFSET 0.000000 0.000000 0.000000
					CHANNELS 3 Zrotation Yrotation Xrotation
					JOINT Neck1
					{
						OFFSET 0.000000 1.600000 0.340000
						CHANNELS 3 Zrotation Yrotation Xrotation
						JOINT Head
						{
							OFFSET 0.000000 1.667000 -0.240000
							CHANNELS 3 Zrotation Yrotation Xrotation
							End Site
							{
								OFFSET 0.000000 0.000000 0.000000
							}
						}
					}
				}
				JOINT LeftShoulder
				{
					OFFSET 0.000000 0.000000 0.000000
					CHANNELS 3 Zrotation Yrotation Xrotation
					JOINT LeftArm
					{
						OFFSET 2.700000 1.550000 -0.730000
						CHANNELS 3 Zrotation Yrotation Xrotation
						JOINT LeftForeArm
						{
							OFFSET 5.450000 0.000000 0.000000
							CHANNELS 3 Zrotation Yrotation Xrotation
							JOINT LeftHand
							{
								OFFSET 3.450000 0.000000 0.000000
								CHANNELS 3 Zrotation Yrotation Xrotation
								JOINT LeftHandIndex1
								{
									OFFSET 0.750000 0.000000 0.000000
									CHANNELS 3 Zrotation Yrotation Xrotation
									End Site
									{
										OFFSET 0.000000 0.000000 0.000000
									}
								}
							}
						}
					}
				}
				JOINT RightShoulder
				{
					OFFSET 0.000000 0.000000 0.000000
					CHANNELS 3 Zrotation Yrotation Xrotation
					JOINT RightArm
					{
						OFFSET -2.700000 1.550000 -0.730000
						CHANNELS 3 Zrotation Yrotation Xrotation
						JOINT RightForeArm
						{
							OFFSET -5.450000 0.000000 0.000000
							CHANNELS 3 Zrotation Yrotation Xrotation
							JOINT RightHand
							{
								OFFSET -3.450000 0.000000 0.000000
								CHANNELS 3 Zrotation Yrotation Xrotation
								JOINT RightHandIndex1
								{
									OFFSET -0.750000 0.000000 0.000000
									CHANNELS 3 Zrotation Yrotation Xrotation
									End Site
									{
										OFFSET 0.000000 0.000000 0.000000
									}
								}
							}
						}
					}
				}
			}
		}
	}
}
MOTION
Frames: 8
Frame Time: 0.016667
-2.001360 16.394050 -2.319160 -3.567228 -6.920341 -1.822701 -15.206521 10.006429 5.608020 39.417913 0.951680 -31.793752 -21.557527 22.808189 40.879986 0.927518 11.680185 0.472712 0.023910 -0.027490 -0.299600 18.905082 -8.724150 3.221789 -20.096040 6.574428 -37.400538 8.443519 -20.118855 62.542773 -1.627371 -10.811501 0.687947 -0.028970 0.453710 -0.020400 -4.651629 -0.219742 -9.362982 25.046522 -15.630205 32.505104 -28.954917 -5.693567 -5.171113 11.953808 -13.601866 -7.985732 -25.848532 17.415538 31.925897 7.514000 2.301470 -9.028530 -17.258852 13.663084 -1.733512 -55.782139 13.883716 -17.487478 -48.252606 -56.470878 18.629856 -3.291197 3.389814 0.476230 -0.057200 -0.044280 0.245750 -8.630650 -2.369023 4.380562 -5.202173 -6.108262 -10.482510 -99.152461 -9.623583 8.564122 3.156446 -1.832555 -0.273390 0.453270 0.212840 0.097780 
-2.022110 16.311730 -2.381880 -3.533347 -7.815014 -2.589441 -15.339589 10.082052 5.735072 40.292945 1.424479 -32.253905 -21.462793 23.555510 42.365858 1.006811 11.912660 0.387986 0.038420 -0.031000 -0.244020 18.804297 -8.351742 3.340119 -20.759695 7.518365 -37.683674 9.751478 -21.248168 63.846232 -1.766903 -11.180283 0.578401 -0.060520 0.365030 -0.006340 -4.345689 -0.860949 -9.528608 23.641853 -16.060840 37.223913 -27.282159 -5.502292 -7.313911 12.504348 -13.618453 -8.552413 -26.223039 16.890156 31.881594 5.430700 2.863570 -10.668460 -18.114313 13.358473 -1.900921 -55.356113 15.153307 -18.084158 -52.636621 -56.068047 20.384368 -3.230950 3.403748 0.524350 -0.109940 0.011720 0.223080 -8.616375 -1.189650 4.791977 -1.499829 -5.353056 -11.770454 -105.883290 -11.218675 11.088602 3.122876 -1.907172 -0.247710 0.403220 0.188970 0.070680 
-2.035800 16.238400 -2.468170 -3.120941 -9.585076 -3.725326 -15.531958 10.331461 5.782756 40.438047 2.117387 -32.764107 -20.283863 24.184919 44.680475 1.042164 12.183711 0.287014 -0.004400 -0.099220 -0.221250 18.641434 -7.845907 3.518152 -21.928696 9.147650 -38.073268 11.597747 -22.195769 64.681532 -1.876518 -11.458669 0.515535 -0.115310 0.308270 -0.001250 -3.880196 -1.876106 -9.709049 20.890944 -15.704852 44.225209 -24.647574 -4.553801 -10.628293 13.187927 -13.701972 -9.158377 -26.705867 16.722554 32.091550 2.980790 3.753560 -13.466120 -20.546891 12.549444 -2.302376 -54.061043 16.796571 -18.878102 -55.845510 -55.797477 21.417614 -3.209978 3.332226 0.602110 -0.148550 0.057510 0.172900 -7.210494 0.972328 5.257610 2.646660 -3.571808 -13.053896 -115.434068 -12.210768 14.189494 2.990978 -1.923934 -0.261230 0.406540 0.224450 0.027680 
-2.053390 16.167880 -2.544960 -2.712111 -10.698560 -4.338722 -15.642095 10.410933 5.772844 40.032131 2.655459 -33.746316 -18.934092 24.687404 46.984066 1.114940 12.355659 0.212306 0.012160 -0.070430 -0.172780 18.567073 -7.463053 3.703122 -23.440548 10.408428 -38.692535 13.903712 -23.393380 65.037604 -2.004619 -11.731339 0.441364 -0.134970 0.216600 0.018220 -3.652497 -2.441773 -9.814497 19.682888 -16.011767 48.348291 -23.230477 -3.860832 -10.877832 13.472435 -13.955033 -10.051215 -27.713279 16.977994 32.249895 -0.020690 4.570220 -16.820210 -21.543540 11.014139 -1.973245 -52.709280 17.650312 -19.327582 -61.793257 -55.022953 23.410035 -3.174998 3.316635 0.635700 -0.201570 0.134170 0.143120 -6.527565 3.469234 5.885529 9.066178 -0.211228 -14.189846 -125.790186 -11.145632 13.868115 2.865597 -2.051249 -0.213410 0.383680 0.211430 0.016400 
-2.062120 16.117330 -2.619080 -2.356230 -11.411684 -4.639249 -15.750632 10.567180 5.702663 39.126086 3.095055 -34.977139 -16.676468 24.588175 49.206628 1.108448 12.439045 0.147874 0.001090 -0.100230 -0.131000 18.484156 -7.087620 3.897768 -25.213898 11.344506 -39.417089 16.636383 -24.652949 64.542484 -2.098507 -11.921787 0.370433 -0.176050 0.134890 0.052550 -3.402888 -3.122090 -9.913304 18.830859 -16.078460 51.723499 -21.867029 -2.569239 -10.917027 14.068970 -13.817768 -11.233018 -28.352420 17.165002 33.737861 -3.905830 5.194590 -19.528990 -23.100175 8.428498 -1.406658 -50.906675 17.996233 -19.419502 -64.669774 -54.596477 24.120910 -3.153186 3.291591 0.689680 -0.246290 0.197310 0.094230 -5.841655 6.786430 6.563889 17.003876 2.592238 -15.323031 -133.578989 -8.493738 8.987635 2.703602 -2.172641 -0.185920 0.356910 0.236030 -0.012090 
-2.061550 16.076520 -2.665940 -1.757478 -11.497918 -4.727410 -15.827998 10.693880 5.611489 37.712191 3.196620 -36.553327 -14.292478 24.327641 51.590022 1.073277 12.529952 0.073237 -0.007730 -0.141640 -0.113090 18.423037 -6.781644 4.079818 -27.593738 11.658817 -39.883920 20.007495 -26.233261 63.251558 -2.164824 -12.087057 0.288849 -0.204550 0.068850 0.079380 -3.213589 -3.707156 -9.977439 18.666535 -15.965037 53.719929 -19.933427 -1.191517 -10.655629 14.182627 -13.878668 -12.492585 -30.015500 17.946628 35.082043 -6.861600 4.549180 -21.686410 -23.784107 5.756773 -0.438868 -49.662260 17.983824 -18.860361 -65.182314 -52.967475 23.285563 -3.151431 3.260099 0.739380 -0.295210 0.230830 0.047440 -4.979308 10.134944 7.003506 25.280987 4.764797 -16.252671 -138.436591 -2.594594 -7.290889 2.451226 -2.198585 -0.169500 0.335170 0.280090 -0.034200 
-2.050540 16.042840 -2.701350 -0.876785 -11.384256 -4.587853 -15.813251 10.583280 5.564140 36.421698 3.068149 -37.883658 -13.494049 24.494184 53.085044 1.082223 12.664316 0.016550 -0.018090 -0.148660 -0.113350 18.452912 -6.648001 4.282351 -30.632193 11.340831 -40.656726 23.091020 -27.840933 61.683080 -2.200407 -12.223230 0.232454 -0.208370 0.039350 0.095310 -3.279370 -3.671902 -10.011977 19.967514 -15.684221 53.259377 -18.244494 -0.664524 -7.921371 13.650656 -13.536705 -13.507696 -30.567809 18.659011 36.296909 -10.471690 3.546950 -22.870790 -24.423610 1.869153 1.256513 -48.541119 17.755652 -18.553504 -64.529989 -53.819321 23.508042 -3.149046 3.237949 0.732340 -0.300990 0.244540 0.019770 -2.966145 13.411651 7.409419 32.192640 6.789037 -16.687568 -139.692054 5.522422 -34.617124 2.175595 -2.000166 -0.148870 0.340580 0.310640 -0.030010 
-2.031130 16.023010 -2.729180 -0.126199 -11.120978 -4.607543 -15.750752 10.425999 5.512877 35.253454 2.817224 -38.821108 -12.967846 24.565798 54.433163 1.093136 12.762503 -0.023347 0.019910 -0.094290 -0.082140 18.521854 -6.659597 4.420185 -33.073810 11.002778 -41.045406 25.141837 -28.863447 60.253114 -2.228730 -12.230838 0.211777 -0.180120 -0.012350 0.096680 -3.461377 -3.369979 -9.979418 22.560127 -15.515998 51.998140 -16.883749 -0.584470 -4.504492 12.666797 -13.268742 -14.487085 -31.720855 19.098529 36.984583 -12.900080 1.934810 -25.074650 -23.292906 -2.298360 3.157801 -48.373509 16.470163 -18.555765 -60.534296 -53.838288 21.550735 -3.131361 3.190191 0.738670 -0.331780 0.280030 0.012710 -1.747050 16.663679 7.839103 38.201454 8.623823 -17.760404 -136.894983 13.390648 -56.137443 2.080945 -1.724956 -0.122640 0.356970 0.300300 -0.024950 
